<?xml version="1.0" encoding="utf-8"?>
<!-- Generator: Adobe Illustrator 12.0.0, SVG Export Plug-In  -->
<!DOCTYPE svg PUBLIC "-//W3C//DTD SVG 1.1//EN" "http://www.w3.org/Graphics/SVG/1.1/DTD/svg11.dtd" [
	<!ENTITY ns_flows "http://ns.adobe.com/Flows/1.0/">
	<!ENTITY ns_svg "http://www.w3.org/2000/svg">
	<!ENTITY ns_xlink "http://www.w3.org/1999/xlink">
]>
<svg  version="1.1" xmlns="&ns_svg;" xmlns:xlink="&ns_xlink;" xmlns:a="http://ns.adobe.com/AdobeSVGViewerExtensions/3.0/"
	 width="182" height="21" viewBox="-0.011 -0.043 182 21" enable-background="new -0.011 -0.043 182 21" xml:space="preserve">
<defs>
</defs>
<g>
	<g>
		<path fill="#FFFFFF" d="M30.078,3.523c0.281,0.281,0.188,0.492-0.281,0.633c-0.281,0.516-0.563,1.008-0.844,1.477
			c1.266-0.141,2.742-0.281,4.43-0.422c0.234-0.328,0.398-0.445,0.492-0.352c0.516,0.328,1.031,0.75,1.547,1.266
			c0.281,0.422,0.023,0.656-0.773,0.703c-1.5,3.047-3.141,5.461-4.922,7.242c-1.641,1.641-3.727,2.906-6.258,3.797
			c-0.234,0-0.281-0.094-0.141-0.281c4.594-2.766,7.781-6.492,9.563-11.18c-1.734,0.141-3.117,0.281-4.148,0.422
			c-0.094-0.047-0.211-0.117-0.352-0.211c-1.406,2.203-3.188,3.938-5.344,5.203c-0.234,0.047-0.281-0.047-0.141-0.281
			c1.969-1.922,3.563-4.313,4.781-7.172c0.141-0.281,0.234-0.563,0.281-0.844c0.047-0.375-0.188-0.633-0.703-0.773
			c-0.094-0.047-0.094-0.117,0-0.211c0.328-0.234,0.656-0.305,0.984-0.211C29,2.656,29.609,3.055,30.078,3.523z M36.055,5.563
			c-0.328,0-0.563-0.164-0.703-0.492c-0.422-0.75-0.938-1.359-1.547-1.828c-0.141-0.094-0.117-0.164,0.07-0.211
			c1.828,0.563,2.742,1.195,2.742,1.898C36.617,5.352,36.43,5.563,36.055,5.563z M37.32,4.156c-0.188,0-0.398-0.164-0.633-0.492
			c-0.609-0.797-1.266-1.336-1.969-1.617c-0.141-0.094-0.117-0.164,0.07-0.211c2.109,0.328,3.164,0.844,3.164,1.547
			C37.953,3.898,37.742,4.156,37.32,4.156z"/>
		<path fill="#FFFFFF" d="M53.141,6.883c0.281,0.328,0.07,0.539-0.633,0.633c-0.516,2.766-0.867,4.641-1.055,5.625
			c0.281-0.094,0.492-0.07,0.633,0.07c0.188,0.141,0.375,0.328,0.563,0.563c0.141,0.234,0.164,0.422,0.07,0.563
			c-0.047,0.141-0.211,0.211-0.492,0.211c-0.656-0.094-1.172-0.141-1.547-0.141c-2.156,0.047-4.219,0.188-6.188,0.422v0.281
			c0,0.328-0.234,0.422-0.703,0.281c-0.516-0.281-0.773-0.633-0.773-1.055c0.047-0.281,0.07-0.516,0.07-0.703
			c-0.234-3.047-0.445-5.227-0.633-6.539c-0.094-0.328-0.445-0.609-1.055-0.844c-0.141-0.047-0.141-0.164,0-0.352
			c0.281-0.234,0.563-0.352,0.844-0.352c0.516,0.094,1.195,0.422,2.039,0.984c1.969-0.188,4.125-0.375,6.469-0.563
			c0.281-0.375,0.469-0.539,0.563-0.492C52.109,5.945,52.719,6.414,53.141,6.883z M44.07,7.727c0.141,1.969,0.258,3.961,0.352,5.977
			c1.922-0.188,3.82-0.352,5.695-0.492c0.328-2.109,0.516-4.102,0.563-5.977C48.57,7.281,46.367,7.445,44.07,7.727z"/>
		<path fill="#FFFFFF" d="M66.57,2.75c0.281,0.375,0.164,0.633-0.352,0.773c0,0.797,0,1.594,0,2.391
			c0.516-0.047,1.711-0.117,3.586-0.211c0.188-0.141,0.328-0.281,0.422-0.422c0.047-0.047,0.117-0.047,0.211,0
			c0.844,0.563,1.43,1.031,1.758,1.406c0.188,0.328-0.094,0.516-0.844,0.563c-1.922,5.859-5.18,9.539-9.773,11.039
			c-0.234,0-0.281-0.094-0.141-0.281c3.891-2.063,6.633-5.789,8.227-11.18c-2.719,0.094-5.531,0.305-8.438,0.633
			c0.141,1.219,0.258,2.531,0.352,3.938c0,0.469-0.07,0.75-0.211,0.844c-0.188,0.094-0.445,0.07-0.773-0.07
			c-0.469-0.281-0.703-0.539-0.703-0.773c0.047-0.375,0.07-0.75,0.07-1.125c-0.094-1.547-0.211-2.742-0.352-3.586
			c-0.047-0.281-0.258-0.516-0.633-0.703c-0.188-0.047-0.211-0.164-0.07-0.352c0.188-0.188,0.352-0.281,0.492-0.281
			c0.703,0.141,1.242,0.445,1.617,0.914c1.219-0.094,2.438-0.188,3.656-0.281c0-0.703,0-1.43,0-2.18
			c0-0.703-0.258-1.055-0.773-1.055c-0.234-0.094-0.258-0.234-0.07-0.422c0.281-0.234,0.516-0.352,0.703-0.352
			C65.281,2.117,65.961,2.375,66.57,2.75z"/>
		<path fill="#FFFFFF" d="M88.859,6.195C89.047,6.336,89.094,6.547,89,6.828c-0.141,0.234-0.352,0.352-0.633,0.352
			c-0.609-0.047-1.242-0.07-1.898-0.07c-0.75-0.047-1.734,0-2.953,0.141c1.078,0.422,1.242,0.773,0.492,1.055
			c-0.047,1.828-0.117,3.445-0.211,4.852c1.875-0.094,3.539-0.188,4.992-0.281c0.375-0.375,0.609-0.539,0.703-0.492
			c0.797,0.328,1.406,0.68,1.828,1.055c0.281,0.563,0.117,0.914-0.492,1.055c-1.078-0.094-2.32-0.164-3.727-0.211
			c-1.453,0-2.813,0.047-4.078,0.141c-1.594,0.141-3.328,0.398-5.203,0.773c-0.328,0.234-0.609,0.234-0.844,0
			c-0.516-0.375-0.961-0.797-1.336-1.266c-0.094-0.094-0.141-0.188-0.141-0.281c0-0.328,0.047-0.563,0.141-0.703
			c0.094-0.188,0.164-0.188,0.211,0c0.188,0.328,0.469,0.539,0.844,0.633c0.281,0.047,0.586,0.07,0.914,0.07
			c1.547-0.141,3.141-0.281,4.781-0.422c0.094-1.594,0.07-3.422-0.07-5.484c-0.047-0.234-0.188-0.352-0.422-0.352
			c-1.219,0.141-2.156,0.281-2.813,0.422c-0.375,0.188-0.68,0.164-0.914-0.07c-0.563-0.563-0.938-0.938-1.125-1.125
			c-0.094-0.188-0.094-0.422,0-0.703c0.094-0.188,0.188-0.211,0.281-0.07c0.234,0.375,0.563,0.563,0.984,0.563
			c1.406,0,3.914-0.188,7.523-0.563c0.281-0.047,0.539-0.094,0.773-0.141c0.188-0.141,0.352-0.258,0.492-0.352
			C87.852,5.633,88.438,5.914,88.859,6.195z"/>
		<path fill="#FFFFFF" d="M104.961,4.141c0.75,0.516,1.336,0.961,1.758,1.336c0.234,0.375,0.023,0.586-0.633,0.633
			c-1.172,1.641-2.297,3.094-3.375,4.359c2.203,0.938,3.797,1.898,4.781,2.883c0.563,0.563,0.844,1.078,0.844,1.547
			c0,0.656-0.305,1.008-0.914,1.055c-0.328-0.047-0.609-0.281-0.844-0.703c-1.313-1.922-2.719-3.375-4.219-4.359
			c-2.109,2.391-4.828,4.242-8.156,5.555c-0.234,0-0.281-0.094-0.141-0.281c4.359-2.672,7.664-6.07,9.914-10.195
			c-2.063,0.141-4.102,0.516-6.117,1.125c-0.094,0.328-0.281,0.398-0.563,0.211c-0.891-0.563-1.453-1.008-1.688-1.336
			c-0.188-0.234-0.188-0.586,0-1.055c0.141-0.141,0.211-0.141,0.211,0c0.141,0.234,0.328,0.422,0.563,0.563
			c0.234,0.094,0.445,0.141,0.633,0.141c2.203-0.328,4.734-0.68,7.594-1.055L104.961,4.141z"/>
		<path fill="#FFFFFF" d="M125.352,3.297c0.75,0.563,1.336,1.078,1.758,1.547c0.375,0.516,0.117,0.703-0.773,0.563
			c-2.719,1.688-4.734,2.766-6.047,3.234c-0.656,4.406-2.836,7.453-6.539,9.141c-0.141,0-0.164-0.07-0.07-0.211
			c3.141-2.391,4.758-5.648,4.852-9.773c-0.141-0.141-0.328-0.281-0.563-0.422c-0.141-0.094-0.117-0.211,0.07-0.352
			s0.375-0.211,0.563-0.211c0.75,0.234,1.359,0.586,1.828,1.055c1.172-0.797,2.344-1.805,3.516-3.023
			c-3.938,0.328-6.516,0.609-7.734,0.844c-0.328,0.047-0.914,0.188-1.758,0.422c-0.281,0.328-0.586,0.352-0.914,0.07
			c-0.75-0.563-1.242-1.055-1.477-1.477c-0.094-0.094-0.094-0.305,0-0.633c0.141-0.328,0.258-0.375,0.352-0.141
			c0.141,0.234,0.305,0.398,0.492,0.492c0.234,0.094,0.469,0.141,0.703,0.141c1.359-0.141,5.086-0.445,11.18-0.914L125.352,3.297z"
			/>
		<path fill="#FFFFFF" d="M140.258,2.258c0.188,0,0.398,0.07,0.633,0.211c0.656,0.375,1.219,0.82,1.688,1.336
			c0.141,0.188,0.094,0.352-0.141,0.492c-0.234,0.094-0.469,0.164-0.703,0.211c-1.031,1.313-2.203,2.578-3.516,3.797
			c1.172,0.469,1.336,0.82,0.492,1.055c0,3.047,0.023,5.18,0.07,6.398c0,0.516,0,1.055,0,1.617c0,0.375-0.211,0.563-0.633,0.563
			c-0.281-0.094-0.539-0.234-0.773-0.422c-0.234-0.234-0.352-0.422-0.352-0.563c0.094-0.75,0.141-1.43,0.141-2.039
			c0.094-1.828,0.094-3.727,0-5.695c-2.672,1.922-5.18,3.234-7.523,3.938c-0.281,0-0.328-0.094-0.141-0.281
			c4.359-2.297,7.875-5.32,10.547-9.07c0.141-0.188,0.211-0.375,0.211-0.563s-0.141-0.375-0.422-0.563
			c-0.094-0.047-0.094-0.141,0-0.281C139.93,2.305,140.07,2.258,140.258,2.258z"/>
		<path fill="#FFFFFF" d="M148.273,7.672c1.969-0.047,3.328,0.305,4.078,1.055c0.375,0.375,0.563,0.727,0.563,1.055
			c0,0.609-0.281,0.914-0.844,0.914c-0.281,0-0.633-0.258-1.055-0.773c-0.703-0.891-1.617-1.5-2.742-1.828
			C148.039,7.953,148.039,7.813,148.273,7.672z M154.25,6.547c-0.281,0-0.68-0.281-1.195-0.844
			c-1.078-1.031-2.086-1.688-3.023-1.969c-0.188-0.094-0.188-0.188,0-0.281c2.156-0.047,3.633,0.328,4.43,1.125
			c0.375,0.375,0.563,0.75,0.563,1.125C155.023,6.266,154.766,6.547,154.25,6.547z M163.25,7.039
			c-2.484,4.031-6.023,7.289-10.617,9.773c-0.188,0.516-0.469,0.656-0.844,0.422c-1.078-0.891-1.664-1.523-1.758-1.898
			c-0.141-0.375-0.117-0.82,0.07-1.336c0.141-0.188,0.258-0.188,0.352,0c0.047,0.328,0.164,0.586,0.352,0.773
			c0.328,0.422,0.656,0.516,0.984,0.281c3.609-1.406,7.336-4.148,11.18-8.227C163.203,6.688,163.297,6.758,163.25,7.039z"/>
		<path fill="#FFFFFF" d="M178.297,8.852c0.375-0.375,0.656-0.563,0.844-0.563c0.234,0,0.539,0.141,0.914,0.422
			c0.328,0.234,0.539,0.398,0.633,0.492c0.328,0.281,0.492,0.516,0.492,0.703s-0.07,0.352-0.211,0.492s-0.328,0.211-0.563,0.211
			c-0.141,0-0.398-0.023-0.773-0.07c-0.75-0.094-1.594-0.141-2.531-0.141c-2.156,0-3.609,0.023-4.359,0.07
			c-2.953,0.188-4.57,0.422-4.852,0.703c-0.188,0.188-0.398,0.188-0.633,0c-0.75-0.609-1.195-1.078-1.336-1.406
			c-0.094-0.234-0.141-0.539-0.141-0.914c0-0.422,0.094-0.516,0.281-0.281s0.352,0.398,0.492,0.492
			c0.234,0.141,0.539,0.211,0.914,0.211c0.422,0,1.242-0.047,2.461-0.141c1.172-0.094,2.602-0.164,4.289-0.211
			C175.766,8.875,177.125,8.852,178.297,8.852z"/>
	</g>
</g>
<g>
	<g>
		<path fill="#FFFFFF" d="M2.301,0.117c0.338,0.13,0.299,0.273-0.117,0.43v2.148H2.34L2.965,2.07l0.742,0.586
			C3.811,2.76,3.785,2.852,3.629,2.93H2.184v1.563C3.199,4.727,3.72,5.091,3.746,5.586c0,0.313-0.13,0.482-0.391,0.508
			c-0.208,0-0.378-0.156-0.508-0.469c-0.13-0.417-0.352-0.729-0.664-0.938v4.258L1.988,9.063C1.676,9.219,1.48,9.206,1.402,9.023
			v-3.32C0.959,6.51,0.556,7.109,0.191,7.5C0.009,7.604-0.043,7.565,0.035,7.383c0.807-1.51,1.25-2.995,1.328-4.453H0.074V2.695
			h1.328V0L2.301,0.117z M6.363,0.078C6.858,0.234,6.871,0.43,6.402,0.664v1.797h1.055l0.625-0.625l0.742,0.586
			c0.104,0.104,0.078,0.195-0.078,0.273H6.402v1.758h1.523l0.625-0.625l0.742,0.586c0.104,0.104,0.078,0.195-0.078,0.273H6.402
			C7.131,5.99,8.173,6.953,9.527,7.578C9.11,7.734,8.798,7.995,8.59,8.359C7.548,7.448,6.819,6.354,6.402,5.078v3.828L6.207,9.023
			c-0.391,0.156-0.625,0.156-0.703,0V6.133C4.696,7.174,3.772,7.995,2.73,8.594C2.548,8.672,2.496,8.633,2.574,8.477
			c1.38-1.276,2.317-2.539,2.813-3.789H3.277V4.453h2.227V2.695H4.527C4.293,3.242,3.954,3.737,3.512,4.18
			C3.355,4.284,3.29,4.258,3.316,4.102c0.521-0.963,0.833-2.096,0.938-3.398L5.23,1.055c0.313,0.156,0.26,0.313-0.156,0.469
			c-0.13,0.338-0.273,0.651-0.43,0.938h0.859V0L6.363,0.078z"/>
		<path fill="#FFFFFF" d="M14.957,4.531c0.104,0.104,0.078,0.195-0.078,0.273h-1.836v2.539c0.911-0.156,1.667-0.313,2.266-0.469
			c0.208,0,0.208,0.065,0,0.195c-0.677,0.313-2.019,0.794-4.023,1.445c-0.13,0.469-0.313,0.586-0.547,0.352l-0.703-1.094
			c0.885-0.078,1.588-0.169,2.109-0.273V4.805h-1.641V4.57h3.086l0.625-0.625L14.957,4.531z M15.66,0.117
			c0.495,0.156,0.508,0.352,0.039,0.586c0,0.443,0.013,1.068,0.039,1.875h1.836l0.781-0.781l0.898,0.742
			c0.104,0.104,0.091,0.195-0.039,0.273h-3.438c0.156,2.24,0.872,3.841,2.148,4.805c0.234,0.156,0.403,0.143,0.508-0.039
			c0.13-0.26,0.325-0.664,0.586-1.211c0.13-0.208,0.182-0.208,0.156,0l-0.273,1.055c-0.052,0.234-0.039,0.417,0.039,0.547
			s0.208,0.352,0.391,0.664c0.078,0.234,0.013,0.404-0.195,0.508c-0.183,0.052-0.417,0.026-0.703-0.078
			c-0.261-0.078-0.586-0.273-0.977-0.586c-1.537-1.328-2.383-3.216-2.539-5.664h-4.766V2.578h4.727
			c-0.026-0.573-0.052-1.419-0.078-2.539L15.66,0.117z M17.73,1.68c0,0.313-0.13,0.482-0.391,0.508c-0.208,0-0.352-0.117-0.43-0.352
			c-0.183-0.469-0.443-0.82-0.781-1.055c-0.156-0.104-0.144-0.156,0.039-0.156C17.209,0.729,17.73,1.081,17.73,1.68z"/>
		<path fill="#FFFFFF" d="M5.035,11.234c0.208,0.104,0.221,0.221,0.039,0.352c-0.052,0.026-0.117,0.052-0.195,0.078
			c1.198,1.615,2.695,2.695,4.492,3.242c-0.417,0.182-0.742,0.443-0.977,0.781c-1.771-0.99-2.982-2.292-3.633-3.906
			C3.616,13.63,2.079,15.037,0.152,16c-0.156,0-0.183-0.065-0.078-0.195c1.771-1.198,3.112-2.826,4.023-4.883L5.035,11.234z
			 M8.863,16.43c0.104,0.104,0.091,0.195-0.039,0.273H4.449c0.26,0.208,0.156,0.352-0.313,0.43l-1.484,1.875
			c1.12,0,2.448-0.039,3.984-0.117c-0.287-0.521-0.703-0.977-1.25-1.367c-0.13-0.13-0.104-0.182,0.078-0.156
			c0.729,0.156,1.393,0.521,1.992,1.094c0.469,0.443,0.703,0.846,0.703,1.211s-0.169,0.547-0.508,0.547
			c-0.183,0-0.339-0.13-0.469-0.391c-0.104-0.208-0.234-0.43-0.391-0.664C5.1,19.398,3.407,19.62,1.715,19.828
			c-0.13,0.469-0.3,0.547-0.508,0.234l-0.586-1.094c0.547,0.026,1.094,0.039,1.641,0.039c0.364-0.703,0.703-1.471,1.016-2.305H0.309
			v-0.234h6.875l0.781-0.781L8.863,16.43z M2.223,15.102v-0.234h3.203l0.625-0.625l0.742,0.586c0.104,0.104,0.078,0.195-0.078,0.273
			H2.223z"/>
		<path fill="#FFFFFF" d="M12.301,11.078c0.495,0.156,0.508,0.352,0.039,0.586v1.445h0.391l0.43-0.508l0.703,0.703
			c0.104,0.156,0.13,0.273,0.078,0.352c-0.078,0.078-0.234,0.117-0.469,0.117c-0.365,0.521-0.742,0.99-1.133,1.406v0.391
			c0.938,0.078,1.445,0.43,1.523,1.055c0,0.365-0.144,0.56-0.43,0.586c-0.183,0-0.3-0.078-0.352-0.234
			c-0.183-0.625-0.43-1.029-0.742-1.211v4.219l-0.195,0.117c-0.391,0.156-0.625,0.156-0.703,0v-4.023
			c-0.495,0.443-0.964,0.807-1.406,1.094c-0.261,0.156-0.3,0.117-0.117-0.117c1.224-1.276,2.135-2.513,2.734-3.711H10.27v-0.234
			h1.172V11L12.301,11.078z M16.402,11.078c0.495,0.156,0.508,0.352,0.039,0.586v2.891h0.898l0.781-0.781l0.898,0.742
			c0.104,0.104,0.091,0.195-0.039,0.273h-2.539v4.57h1.133l0.781-0.781l0.898,0.742c0.104,0.104,0.091,0.195-0.039,0.273h-6.211
			v-0.234h2.539v-4.57h-2.031v-0.234h2.031V11L16.402,11.078z"/>
	</g>
</g>
</svg>
